<svg xmlns="http://www.w3.org/2000/svg" xmlns:xlink="http://www.w3.org/1999/xlink" viewBox="0 0 170 170"><defs><style>.a{fill:none;clip-rule:evenodd;}.b{fill:#020913;}.c{clip-path:url(#a);}.d{fill:url(#b);}.e{fill:#fff;}</style><clipPath id="a" transform="translate(-218 -125)"><path class="a" d="M242.59,194.09a3.59,3.59,0,1,1,0-7.18H290.7a137.13,137.13,0,0,1,7.62,11.59h-8.38c-1-1.54-1.95-3-2.92-4.41Zm63,18.77A116.22,116.22,0,0,1,310,224.57a111.14,111.14,0,0,0-.08-11.71Zm-49.72-33.14h-4.32a3.59,3.59,0,1,1,0-7.18h16.84l-.39-.34h0a3.51,3.51,0,0,1-.46-.48,3.57,3.57,0,0,1,.51-5l34.11-27.81a3.57,3.57,0,0,1,4.53,0c1,.85,1.56,1.24,2,1.55a30.53,30.53,0,0,1,3.55,3.09,3.58,3.58,0,0,1-4.91,5.22,27.32,27.32,0,0,0-2.84-2.51l-28.69,23.39a132.93,132.93,0,0,1,9.28,10.09H255.91ZM315.36,240l37.21-10.92a184.41,184.41,0,0,0-2.52-41.73c-2.66-15-6.79-26.82-10.53-34.08l-35.45,9.32a140.82,140.82,0,0,1,11.3,35.92h-7.24a127.92,127.92,0,0,0-12.3-36.36,3.42,3.42,0,0,1-.42-1,3.57,3.57,0,0,1,2.55-4.38l42.44-11.16a3.6,3.6,0,0,1,4,1.66c4.4,7.5,9.59,21.19,12.72,38.82A192,192,0,0,1,359.58,232a3.57,3.57,0,0,1-2.57,3.21l-45.27,13.29a3.57,3.57,0,0,1-1.95.11l-.26-.07a3.58,3.58,0,0,1-2.54-3.23,97.1,97.1,0,0,0-2-11.74H276.22a3.59,3.59,0,0,1,0-7.18H303a110.59,110.59,0,0,0-4.88-12.77l-.35-.78H266.25a3.59,3.59,0,1,1,0-7.18H316.4A115,115,0,0,1,315.36,240Z"/></clipPath><linearGradient id="b" x1="32.26" y1="107.34" x2="135.25" y2="26.22" gradientUnits="userSpaceOnUse"><stop offset="0" stop-color="#0485b3"/><stop offset="1" stop-color="#4ac0e8"/></linearGradient></defs><title>icon</title><rect class="b" width="170" height="170"/><g class="c"><rect class="d" x="21" y="12.79" width="121.7" height="110.99"/></g><path class="e" d="M334.73,268.89c-1.19,0-1.06,1.47-1.11,3h2c0-1.76,0-3-.87-3Zm-1.11,5.59c0,1.42.69,1.69,1.86,1.69a23.16,23.16,0,0,0,3.85-.52v3.43a12.81,12.81,0,0,1-3.85.67c-3,0-6.56-.47-6.56-6.78,0-5.57,2.83-6.88,5.81-6.88s5.27,1.56,5.27,6.83v1.56ZM322,269.56a3.16,3.16,0,0,0-1.12.4v6.36a3.16,3.16,0,0,0,.8.13c.82,0,1.32-.7,1.32-3.61s-.23-3.28-1-3.28Zm.55,10.19a7.77,7.77,0,0,1-1.67-.27v4.74h-4.72V266.34H320l.7.81a4.27,4.27,0,0,1,2.8-1.06c1.94,0,4.23.54,4.23,6.75,0,6.81-3.43,6.91-5.17,6.91Zm-10.73-15a2.36,2.36,0,1,1,2.33-2.36,2.34,2.34,0,0,1-2.33,2.36Zm-2.36,14.78V266.34h4.72V279.5ZM306.56,270a3.2,3.2,0,0,0-1.57.44v9h-4.72V266.34H304l.7,1.26a2.17,2.17,0,0,1,2.11-1.51,3.35,3.35,0,0,1,1.47.27v3.92A7.31,7.31,0,0,0,306.56,270Zm-9,6.13c.3,0,1.34-.15,1.69-.2v3.36a18.19,18.19,0,0,1-3.36.42c-1.34,0-3.85-.15-3.85-3.8v-6.61h-1.74v-3h1.74l.6-3,4.12-1v4h2.49l-.62,3h-1.87v5.76c0,.9.28,1.07.8,1.07Zm-12.2-6c0,.52.35.69,1.17,1.06l.49.23a3.92,3.92,0,0,1,2.79,3.85c0,4-3,4.47-5.07,4.47a13.56,13.56,0,0,1-3.78-.62v-3.4a17,17,0,0,0,3,.57c.72,0,1.26-.1,1.26-.75,0-.49-.34-.72-1.11-1.07l-.6-.27a4,4,0,0,1-2.71-3.83c0-3.52,2.76-4.29,5.07-4.29a9.34,9.34,0,0,1,3.48.62V270a12.44,12.44,0,0,0-3-.52c-.57,0-1,.15-1,.65Z" transform="translate(-218 -125)"/></svg>